<svg xmlns="http://www.w3.org/2000/svg" viewBox="0 0 32 32" fill="none">
  <!-- Background circle -->
  <circle cx="16" cy="16" r="16" fill="#7C3AED"/>
  
  <!-- Fox head -->
  <path d="M8 14 A8 8 0 0 0 24 14 A8 8 0 0 0 22 10 L20 5 L17 9 Q16 8.5 15 9 L12 5 L10 10 A8 8 0 0 0 8 14 Z" fill="#F97316"/>
  
  <!-- Inner ears -->
  <polygon points="11,9 12,6 14,9" fill="#FEF3C7"/>
  <polygon points="18,9 20,6 21,9" fill="#FEF3C7"/>
  
  <!-- Face mask -->
  <ellipse cx="16" cy="15" rx="5" ry="4.5" fill="#FEF3C7"/>
  
  <!-- Eyes -->
  <circle cx="14" cy="13" r="1.5" fill="#0F172A"/>
  <circle cx="18" cy="13" r="1.5" fill="#0F172A"/>
  <circle cx="14.5" cy="12.5" r="0.5" fill="white"/>
  <circle cx="18.5" cy="12.5" r="0.5" fill="white"/>
  
  <!-- Nose -->
  <ellipse cx="16" cy="15.5" rx="1" ry="0.8" fill="#0F172A"/>
  
  <!-- Smile -->
  <path d="M14 17 Q16 19 18 17" stroke="#0F172A" stroke-width="0.8" fill="none" stroke-linecap="round"/>
  
  <!-- Cheek blush -->
  <ellipse cx="11" cy="15" rx="1.2" ry="0.8" fill="#FECACA" opacity="0.6"/>
  <ellipse cx="21" cy="15" rx="1.2" ry="0.8" fill="#FECACA" opacity="0.6"/>
</svg>
